<?xml version="1.0" encoding="UTF-8"?>
<svg id="Layer_1" data-name="Layer 1" xmlns="http://www.w3.org/2000/svg" viewBox="0 0 422.37 348.8">
  <defs>
    <style>
      .cls-1 {
      fill: #f8b1b2;
      }

      .cls-2 {
      fill: #e3819a;
      }

      .cls-3 {
      fill: #d67b92;
      }

      .cls-4 {
      fill: #e4829a;
      }

      .cls-5 {
      fill: #fde0e0;
      }

      .cls-6 {
      fill: #a72265;
      }

      .cls-7 {
      fill: #a72165;
      }

      .cls-8 {
      fill: #c16180;
      }

      .cls-9 {
      fill: #fffdfc;
      }

      .cls-10 {
      fill: #d2748e;
      }

      .cls-11 {
      fill: #e4819a;
      }

      @keyframes wiggle {
      0%, 100% {
        transform: rotate(-2deg);
      }
      50% {
        transform: rotate(2deg);
      }
      }

      svg {
      animation: wiggle 1.5s infinite;
      }
    </style>
  </defs>
  <path class="cls-7" d="M227.37.05l.17.34.18-.34c2.07-.09,4.23-.03,6.3,0l.17.34.18-.34c.23,0,.47-.02.7,0,.09.34.4.33.7.35,3.52.27,6.63.24,10.22.8,32.01,5,59.85,28.7,69.97,59.35,27.11,2.63,53.41,20.33,62.5,46.52,3.18,9.15,3.8,18.39,2.96,28.02,21.73,10.36,36.47,30.74,40.15,54.53.12.76-.04,1.53.05,2.22l.35,1.05c.06.57-.05,1.18,0,1.75v.35c.04.64.33,1.26.35,1.75-.55.14-.52,1.29,0,1.4.05,1.74.02,3.51,0,5.25-.61.48-.34,1.68-.35,2.45,0,.81.05,1.64,0,2.45l-.35,1.05c-.03.34.04.71,0,1.05-.3.43-.31.9-.35,1.4-.02.23.03.47,0,.7l-.35.52.35.18c-.06.45-.27.93-.35,1.4l-.35.7c-.04.22.04.49,0,.7v.35c-7.92,35.84-39.58,59.01-76.14,57.41-1.26-.05-5.78-.98-6.47-.55-14.55,37.39-58.6,55.28-94.84,36.59-.46,1.5-1.59,3.01-2.52,4.31-23.34,32.63-67.45,43.21-104.12,27.6-20.18-8.59-36.89-25.45-44.27-46.2-.8-.49-6.05.59-7.45.65-52.05,2.42-92.88-42.13-83.38-93.88,2.21-12.03,7.47-23.69,14.87-33.36-14.21-19.02-14.42-45.75-.57-65.04,10.97-15.28,29.35-24.3,48.26-23.14,2.67-22.78,15.58-43.37,35.44-54.86,10.81-6.26,20.4-8.58,32.79-9.39l.35-.35c.35-.02.7.01,1.05,0,.55.59,2.26.58,2.8,0,.23,0,.47,0,.7,0l.52.35.18-.35c.23,0,.47-.01.7,0l.7.35c5.49.39,9.73.77,15.13,2.2s10.18,3.64,15.14,5.86c9.17-8.12,19.26-14.68,30.81-18.92,7.44-2.73,13.69-3.98,21.53-4.89l.35-.35c1.22-.13,2.6.08,3.85,0,.26-.02.33-.35.35-.35.35-.02.7.02,1.05,0ZM196.22,60.95c-1.7,2.27-5.64,1.81-7.29-.58-2.85-4.13-4.29-7.23-7.76-11.32-18.37-21.68-48.14-27.51-73.5-14.35-18.83,9.77-31.97,29.55-32.16,51.07,4.71,1.2,9.62,3.45,13.72,6.05,2.47,1.57,6.63,4.13,6.54,7.28-.1,3.55-3.74,5.2-6.77,3.44-3.24-1.88-5.81-4.43-9.56-6.19-20.95-9.84-49.26-.93-58.22,20.95,0,.02-.29.06-.35.35.01.23-.02.47,0,.7-6.83,13.9-4.62,32.12,5.08,44.09,1.6-1.52,3.22-3.11,4.91-4.53,3.26-2.75,7.94-8.05,11.72-3.16.31,1.89,1.22,2.78-.19,4.89-18.08,13.38-28.74,30.12-30.61,52.86-.02.22-.31.96-.35,1.75-.08,1.37-.02,2.82,0,4.2,0,.66-.24,1.72.35,2.1.15,11.4,4.47,23.35,10.5,32.9,14.57,23.06,42.63,35.39,69.61,30.06l-1.03-11.32c.23-5.49.8-10.62,1.88-16,.36-1.78,1.65-4.92,1.64-6.41s-2.5-7.43-3.05-9.55c-1.65-6.29-2.5-12.81-2.55-19.32-5.26.84-10.76.94-16.1.7-3.08-.14-11.32-.87-13.91-2.02-2.17-.97-2.93-4.48-1.84-6.38.5-.87,2.67-1.93,3.73-1.97,2.43-.11,7.23,1.35,10.1,1.62,4.14.39,9.13.39,13.29,0,.8-.07,4.73-.51,5-.78,3.12-30.72,24.88-58.26,55.35-65.4.17-6.12,1.07-12.21,2.74-18.08.48-1.68,3.44-8.83,3.42-9.57-.04-1.5-1.67-5.86-2.27-7.5-2.38-6.46-5.78-12.46-9.81-18.02-1.58-2.18-4.79-5.35-5.9-7.23-2.04-3.47.66-7.37,4.65-6.76,1.51.23,3.71,2.99,4.75,4.18,6.31,7.26,10.93,15.98,14.52,24.85,4.1-5.3,8.46-10.42,13.66-14.69,15.28-12.54,35.31-18.52,55.06-16.87,3.34-6.55,4.71-13.6,5.57-20.85,1.18-1.97,2.76-2.46,4.99-2.19.3.18.85.17,1.38.54,1.94,1.35,1.78,2.58,1.77,4.71-.04,6.33-2.38,13.51-4.9,19.25,6.01,1.18,11.85,3.15,17.33,5.86,14.01-13.82,33.35-21.29,53.02-21.61-3.35-10.35-9.67-19.56-17.15-27.3-27.35-28.31-71.26-31.88-102.87-8.2-.86.64-6.53,5.2-6.66,5.61-.31,1.01,3.01,3.04,3.83,3.8,4.04,3.77,7.97,8.15,11.07,12.73,1.89,2.79,6.02,8.39,3.63,11.6ZM291.77,72.85c-12.11,2.27-22.95,7.43-32.2,15.58-.14.51.34.57.58.81,2.09,2.09,6.02,4.3,8.52,6.53,1.4,1.24,3.27,3.03,4.55,4.38.98,1.04,4.58,5.02,4.99,6.04,1.56,3.89-1.39,7.06-5.44,6.14-1.67-.38-3.87-4.03-5.14-5.36-24.7-25.92-63.29-28.94-91.36-6.47-.74.59-1.97,1.17-2.81,1.92-11.95,10.66-19.83,26.76-20.29,42.88,8.35-.86,17.39-.41,25.55,1.75,10.11,2.68,25.81,11.38,32.38,19.6,2.53,3.17.93,7.84-3.14,7.72-2.26-.07-5.97-4.56-7.88-6.14-10.67-8.83-21.5-13.31-35.35-14.52-.24-.02-.95-.31-1.75-.35-1.72-.09-3.89-.11-5.6,0-.62.04-.66.35-.7.35-24.48,1.99-43.93,16.35-53.55,38.85-6.12,14.31-7.32,30.02-3.5,45.15l3.91-6.06c3.63-4.91,7.98-10.16,12.54-14.24,2.57-2.3,8.45-7.54,11.28-3.05,3.05,4.85-2.84,7.28-5.68,9.87-13.06,11.92-20.14,25.49-21.7,43.23,0,.07-.31.68-.35,1.4-.07,1.35-.04,2.84,0,4.2,0,.12,0,.23,0,.35,0,.23-.01.47,0,.7,3.74,67.21,98.98,85.79,133.36,30.63,1.53-2.45,3.82-8.64,6.55-9.2,3.11-.63,5.28,1.94,7.79,3.25,38.02,19.87,81.93-6.19,83.66-48.48.02-.47-.01-.93,0-1.4.59-1.25.58-3.73,0-4.9-.73-18.03-9.85-34.92-24.6-45.23-2.19-1.53-6.48-3.41-8.08-4.87-.48-.44-1.17-1.46-1.28-2.05-.31-1.72.03-3.26,1.39-4.39,3.03-2.51,5.52-.38,8.3,1.18,5.77,3.23,10.78,7.58,15.39,12.28,5.43-3.02,11.18-5.59,17.28-6.97,10.15-2.29,26.86-2.11,36.29,2.74,2.8,1.44,4.04,4.57,1.7,7.08-2.63,2.83-6.09.33-9.03-.46-3.76-1.02-7.54-1.87-11.47-2.01-.38-.59-1.44-.34-2.1-.35-.92-.01-1.88-.04-2.8,0-.62.03-.66.35-.7.35-.23.01-.47-.02-.7,0-.06,0-.25-.04-.7,0-8.03.78-14.92,2.41-22.05,6.31,1.5,3.23,3.65,6.1,5.2,9.32,3.99,8.26,6.32,17.54,6.7,26.73.24,5.97,0,12.03-1.4,17.85,9.24,1.27,18.44,1.08,27.45-1.43,25.57-7.1,44.09-30.39,45-57.02,1-29.29-18.53-55.55-47.12-62.26-2.41-.57-9.18-1.12-10.61-2.34-.16-.14-1.4-1.79-1.43-1.9-.31-1.16.09-2.82.7-3.85,1.82-3.05,6.17-1.73,9.11-1.23s5.61,1.26,8.39,1.93c3.57-26.6-14.81-48.87-38.76-57.66-12.81-4.7-25.92-5.4-39.29-2.89Z"/>
  <path class="cls-10" d="M136.37,16.15c-.54.58-2.25.59-2.8,0,.93-.03,1.87-.01,2.8,0Z"/>
  <path class="cls-8" d="M421.97,205.85c0-.77-.26-1.97.35-2.45,0,.77.26,1.97-.35,2.45Z"/>
  <path class="cls-8" d="M422.32,198.15c-.52-.11-.55-1.26,0-1.4.02.46-.01.93,0,1.4Z"/>
  <path class="cls-8" d="M421.97,192.9l-.35-1.05c0,.05.28.37.35,1.05Z"/>
  <path class="cls-8" d="M421.62,209.35l.35-1.05c-.04.75-.35.99-.35,1.05Z"/>
  <path class="cls-8" d="M421.27,211.8c.04-.5.05-.97.35-1.4-.02.18.43.98-.35,1.4Z"/>
  <path class="cls-8" d="M235.77.4c-.3-.02-.61,0-.7-.35.3.03.6,0,.7.35Z"/>
  <path class="cls-10" d="M139.17,16.5l-.7-.35c.62.03.66.35.7.35Z"/>
  <path class="cls-10" d="M137.77,16.15l-.18.35-.52-.35c.23,0,.47,0,.7,0Z"/>
  <path class="cls-8" d="M421.27,213.2l-.35-.18.35-.52c-.03.23.03.47,0,.7Z"/>
  <path class="cls-8" d="M420.57,216.35v-.35s.07.01,0,.35Z"/>
  <path class="cls-8" d="M420.57,215.3l.35-.7c-.12.77-.34.65-.35.7Z"/>
  <path class="cls-8" d="M227.37.05c.12,0,.23,0,.35,0l-.18.34-.17-.34Z"/>
  <path class="cls-10" d="M132.17,16.5s.1-.34.35-.35l-.35.35Z"/>
  <path class="cls-8" d="M234.02.05c.12,0,.23,0,.35,0l-.18.34-.17-.34Z"/>
  <path class="cls-8" d="M221.77.75s.09-.32.35-.35l-.35.35Z"/>
  <path class="cls-8" d="M225.97.4l.35-.35s-.09.33-.35.35Z"/>
  <path class="cls-8" d="M421.97,195v-.35c.02.19,0,.3,0,.35Z"/>
  <path class="cls-1" d="M291.77,72.85c13.37-2.51,26.48-1.81,39.29,2.89,23.95,8.8,42.33,31.06,38.76,57.66-2.78-.68-5.56-1.46-8.39-1.93s-7.28-1.82-9.11,1.23c-4.51-1.26-8.91-3.05-13.58-3.75-11.65-1.74-23,1.01-30.87,10.05-3.9-2.29-6.89,2.12-9.69,4.14-5.28,3.81-10.82,5.59-17.26,6.36-.11.01-.23-.01-.35,0-.23.02-.47-.02-.7,0-.62.04-.66.35-.7.35-1.03.03-2.12.05-3.15,0-.09,0-1.14-.28-1.75-.35s-1.17,0-1.82-.1c-3.3-.49-7.11-2.79-9.56.44-2.89,3.81.49,6.43,4.03,7.36-9.22,18.96,14.92,31.59,30.1,34.65.11.59.8,1.61,1.28,2.05,1.6,1.46,5.89,3.34,8.08,4.87,14.75,10.3,23.87,27.2,24.6,45.23.07,1.61.03,3.29,0,4.9-.01.47.02.93,0,1.4-.85-.19-.72.43-.99.92-3.2,5.95-5.62,10.91-10.2,16.06-17.37,19.55-43.06,25.67-67.65,16.53-5.62-2.09-9.53-5.99-14.79.08-4.1,4.74-6.61,9.67-11.54,14.36-37.96,36.2-103.53,25.15-125.23-23.2-.23-.52-.05-1.15-.95-.96-.01-.23,0-.47,0-.7l.34-.18-.34-.17c-.04-1.36-.07-2.85,0-4.2l.35-1.4c1.55-17.74,8.64-31.31,21.7-43.23,2.84-2.6,8.74-5.03,5.68-9.87-2.83-4.49-8.71.75-11.28,3.05-13.17-.08-13.64-14.99-12.95-24.85,9.62-22.5,29.07-36.86,53.55-38.85l.7-.35c1.71-.11,3.88-.09,5.6,0,.3.57,1.19.33,1.75.35,13.86,1.21,24.69,5.69,35.35,14.52,1.92,1.59,5.62,6.07,7.88,6.14,4.07.13,5.67-4.55,3.14-7.72-6.57-8.22-22.27-16.92-32.38-19.6-1.2-2.07-2.9-3.77-4.13-5.84-7.84-13.2-4.54-27.65,1.68-40.71,28.07-22.47,66.65-19.45,91.36,6.47,1.26,1.33,3.47,4.98,5.14,5.36,4.05.93,7-2.25,5.44-6.14-.41-1.02-4-5-4.99-6.04-1.17-12.66,8.73-21.37,18.55-27.3ZM313.04,78.19c-7.15.15-9.8,6.3-3.75,10.56,7.76,5.47,19.67-1.5,10.99-8.19-1.95-1.5-4.77-2.41-7.24-2.36ZM335.75,104.82c1.37,1.46,2.82,2.93,4.15,4.42,3.27,3.65,9.8,15.57,14.81,7.47,6.69-10.79-11.69-31.41-23.5-25.6-8,3.93,1.51,10.48,4.54,13.71ZM219.25,97.1c-7.39.67-16.47,4.03-21.07,10.08-2.98,3.92-4.91,12.31,2.41,12.23,5.15-.06,11.89-2.36,17.22-3.1,5.61-.78,10.68-.83,16.3.04,4.26.66,10.46,3.11,14.45,3.06,6.44-.09,3.34-9.69.7-12.96-6.4-7.94-20.39-10.22-30-9.34ZM155.55,160.8c-8.59.76-20.44,6.46-18.81,16.85.31,1.99,1.94,2.08,3.61,1.91,5.27-.52,10.73-3.83,16.84-3.84,6.52-.02,12.46,3.37,18.24,3.84,6.87.55,4.58-7.49,1.87-10.97-4.76-6.12-14.34-8.43-21.76-7.78ZM240.67,189.4c.89,12.65-7.39,28.18-17.19,35.84-18.92,14.79-44.24,11.14-63.07-1.6-3.37-2.28-6.83-6.62-10.74-1.51-12.63,16.52,4.16,39.82,15.73,51.81.41.42.76.85,1.41.86-.09,1.5-.09,3.4,0,4.9,0,.04-.05.04,0,.35.4,2.4,1.9,3.59,4.37,3.53,4.89-.12,3.99-4.93,4.38-8.43,5.25-7.87,12.68-13.2,21-17.5,13.88-.51,27.99-6.64,37.8-16.45,12.18-3.57,25.08-4.1,37.1.35,2.11,2.3,3.85,4.95,5.77,7.01,3.61,3.86,9.42-.04,7.24-4.79-2.2-4.81-10.12-12.27-14.41-15.51-.27-11.81-6.12-24.7-19.25-25.9.28-12.33-3.58-27.15-11.91-36.56-2.08-2.35-5.49-3.78-7.64-.66-2.54,3.68,2.03,7.54,3.94,10.65,2.15,3.5,5.17,9.54,5.45,13.62ZM124.03,180.73c-6.39,1.09-10.23,12.68-3.15,13.83,9.59,1.56,14.16-15.71,3.15-13.83ZM296.61,216.78c-1.67.06-6.52,1.29-6.18,3.51.22,1.44,4.46,6.93,5.49,9.23s2.99,11.05,4.85,11.6c3.41,1.02,6.96-2.56,7.97-5.54,2.7-7.94-3.02-19.15-12.13-18.81ZM136.28,281.51c-4.71.8-2.68,8.74-.9,11.6,7.68,12.35,33.69,19.87,46.5,13.03,2.67-1.43,7.94-6.95,4.87-9.8-2.2-2.04-11.85-1.61-15.2-1.95-6.18-.62-12.19-2.36-17.81-4.94-3.69-1.7-14.12-8.5-17.46-7.94Z"/>
  <path class="cls-1" d="M181.17,49.05c1.78,10.98,1.01,22.38-8.05,29.93s-20.63,6.89-31.15,4.72c-1.04-1.2-3.24-3.95-4.75-4.18-3.99-.62-6.69,3.29-4.65,6.76,1.11,1.88,4.32,5.05,5.9,7.23-.23,1.84.57,3.67.69,5.43,1.79,26.25-20.35,45.97-45.84,44.97-3.6-2.08-10.08-4.16-14.22-4.51-2.74-.23-10.54-.38-12.56,1.35s-1.94,5.43.42,6.95,3.38.44,5.53.39c3.37-.07,5.66-.02,8.94.71,3.41,10.93,5.07,22.67,1.84,33.87-4.08,14.14-15.34,21.51-30.01,20.73-1.98-.11-9.26-1.75-10.33-1.22-.88.43-.88,1.82-.51,2.62.47,1.03,5.88,4.44,7.16,5.09,2.05,1.05,4.16,1.69,6.32,2.45.56.2,1.24-.08,1.04.87-1.09,1.9-.32,5.41,1.84,6.38,2.58,1.15,10.82,1.88,13.91,2.02,9.19,24.28-3.79,56.77-34.19,42.76-5.97-2.75-10.99-7.03-16.21-10.91-6.03-9.55-10.35-21.5-10.5-32.9,0-.66.24-1.72-.35-2.1-.02-1.38-.08-2.83,0-4.2.57-.3.33-1.19.35-1.75,1.88-22.74,12.54-39.48,30.61-52.86,1.4-2.11.5-3,.19-4.89-.11-.66.09-1.42-.08-2.19-.49-2.23-3.26-2.92-5-4.1-11.31-7.69-15.55-16.56-16.62-30.11-.02-.23.01-.47,0-.7l.35-.35c8.96-21.88,37.28-30.79,58.22-20.95,3.75,1.76,6.32,4.31,9.56,6.19,3.03,1.76,6.67.1,6.77-3.44,1.11.09,2.27-.25,2.64-1.38.61-1.84-1.92-8.43-2.47-10.87-3.7-16.21-2.21-30.64,6.68-44.77,1.59-2.53,3.58-4.77,5.05-7.38,25.36-13.16,55.13-7.33,73.5,14.35ZM135.61,33.74c-7.32.19-19.68,4.78-18.11,14.06.4,2.36,3.1,2.72,5.07,2.66,5.88-.16,11.14-1.81,17.5-1.43,5.44.33,19.69,5.16,15.14-6.04-2.74-6.74-13.01-9.43-19.59-9.26ZM58.25,104.1c-5.6.46-13.28,3.22-15.87,8.63-1.17,2.45-1.77,7.14,1.78,7.69,4.87.76,11.66-1.43,16.78-1.41s10.77,1.91,15.77,1.45,3.49-6.35,1.5-9.23c-3.93-5.7-13.48-7.66-19.96-7.13ZM58.23,173.74c-6.53.84-14.63,7.21-12.25,14.52.3.92,1.59,2.29,2.35,2.9,6.08,4.93,18.52.47,21-6.67,2.76-7.95-4.03-11.66-11.1-10.75ZM30.57,224.82c-1.21.37-2.77,2.99-3.15,4.2-4.58,14.54,22.61,32.29,31.78,20.93,2.9-3.59.67-5.18-2.31-7.15-4.22-2.79-8.64-4.65-12.74-7.91-2.68-2.14-9.05-9.51-11.64-10.06-.62-.13-1.33-.2-1.95,0Z"/>
  <path class="cls-1" d="M351.62,136.55c.03.11,1.26,1.76,1.43,1.9,1.42,1.22,8.19,1.78,10.61,2.34,28.59,6.71,48.12,32.97,47.12,62.26-1.93,3.61-3.61,7.34-5.8,10.82-13.5,21.35-37.44,32.63-62.62,30.48-.9-.08-1.8-.36-2.63-.7-.38-9.19-2.71-18.46-6.7-26.73-1.55-3.21-3.7-6.09-5.2-9.32,7.13-3.9,14.02-5.53,22.05-6.31h.7c.23-.02.47.01.7,0l.7-.35c.92-.04,1.88-.01,2.8,0,.39.6,1.44.33,2.1.35,3.92.14,7.71.99,11.47,2.01,2.93.79,6.39,3.29,9.03.46,2.33-2.51,1.09-5.64-1.7-7.08-9.43-4.85-26.14-5.03-36.29-2.74l-6.48-5.59c-15.65-17.98-3.44-46.74,18.73-51.81ZM367.63,159.39c-2.97.4-10.67,4.37-8.13,7.95,1.17,1.64,7.68,4,9.85,5.2,10.08,5.55,10.38,10.78,16.77,18.58,2.82,3.45,4.82,3.86,7.43-.21,8.74-13.6-11.28-33.51-25.92-31.52Z"/>
  <path class="cls-11" d="M330.97,250.3c-1.72,42.3-45.64,68.35-83.66,48.48-2.51-1.31-4.68-3.88-7.79-3.25-2.73.56-5.02,6.75-6.55,9.2-34.38,55.15-129.62,36.57-133.36-30.63.9-.19.72.44.95.96,21.71,48.35,87.27,59.41,125.23,23.2,4.93-4.7,7.43-9.62,11.54-14.36,5.25-6.07,9.17-2.17,14.79-.08,24.59,9.14,50.28,3.02,67.65-16.53,4.58-5.16,7.01-10.11,10.2-16.06.26-.49.14-1.11.99-.92Z"/>
  <path class="cls-1" d="M287.22,35.4c-.24,24.61-28.48,34.36-48.3,23.8.01-2.14.17-3.36-1.77-4.71-.53-.37-1.08-.36-1.38-.54-.53-.31-1.13-.39-1.58-.69-1.45-.97-1.49-2.1-3.87-2.43-7.6-1.05-7.02,5.24-9.18,10.01-5.63,12.44-18.67,11.16-24.91.11,2.39-3.21-1.74-8.8-3.63-11.6-3.1-4.59-7.02-8.97-11.07-12.73-.82-.76-4.15-2.79-3.83-3.8.13-.42,5.8-4.97,6.66-5.61,31.61-23.69,75.52-20.11,102.87,8.2ZM212.58,21.13c-1.51.26-3.23,1.67-4.11,2.89-4.56,6.35,2.79,12.96,8.75,7.7,4.86-4.29,2.56-11.83-4.64-10.59ZM238.49,21.14c-4.44.5-11.59,3.73-10.75,9.15.35,2.29,3.39,2.96,5.29,3.46,5.19,1.37,10.68,1.75,15.96,3.29s12.66,5.94,17.14,6.66c4.91.79,6.21-1.35,5.69-6.04-.45-4.09-5.46-8.75-8.78-10.82-6.97-4.36-16.35-6.63-24.55-5.71Z"/>
  <path class="cls-4" d="M352.32,132.7c-.61,1.03-1.01,2.69-.7,3.85-22.17,5.07-34.38,33.82-18.73,51.81l6.48,5.59c-6.09,1.38-11.85,3.95-17.28,6.97-4.6-4.69-9.62-9.05-15.39-12.28-2.78-1.55-5.27-3.68-8.3-1.18-1.36,1.12-1.69,2.67-1.39,4.39-15.18-3.06-39.32-15.69-30.1-34.65,12.95,3.39,27.95-.06,38.32-8.41,2.59-2.09,5.72-4.34,3.96-8.14-.09-.2-1.23-1.6-1.32-1.65,7.88-9.04,19.22-11.79,30.87-10.05,4.67.7,9.06,2.49,13.58,3.75Z"/>
  <path class="cls-11" d="M138.47,93.5c4.03,5.56,7.43,11.56,9.81,18.02.61,1.64,2.23,6,2.27,7.5.02.74-2.94,7.89-3.42,9.57-1.67,5.87-2.58,11.97-2.74,18.08-30.47,7.14-52.23,34.68-55.35,65.4-.27.26-4.2.7-5,.78-4.16.39-9.15.39-13.29,0-2.87-.27-7.67-1.73-10.1-1.62-1.05.05-3.23,1.11-3.73,1.97.2-.94-.48-.67-1.04-.87-2.16-.76-4.27-1.4-6.32-2.45-1.28-.65-6.69-4.06-7.16-5.09-.36-.8-.36-2.19.51-2.62,1.07-.53,8.35,1.12,10.33,1.22,14.68.78,25.94-6.59,30.01-20.73,3.23-11.2,1.57-22.94-1.84-33.87,1.53.34,2.98.73,4.44,1.34,2.14.89,6.64,4.27,8.3,4.23,4.11-.09,5.76-4.58,2.85-7.68-.69-.74-2.81-2.28-3.69-2.79,25.5,1,47.63-18.72,45.84-44.97-.12-1.76-.92-3.59-.69-5.43Z"/>
  <path class="cls-2" d="M72.67,221.6c5.34.24,10.84.14,16.1-.7.05,6.52.91,13.03,2.55,19.32.55,2.11,3.05,8.11,3.05,9.55s-1.29,4.64-1.64,6.41c-1.08,5.38-1.65,10.51-1.88,16l1.03,11.32c-26.98,5.33-55.04-6.99-69.61-30.06,5.22,3.88,10.24,8.16,16.21,10.91,30.39,14.01,43.38-18.48,34.19-42.76Z"/>
  <path class="cls-2" d="M196.22,60.95c6.24,11.05,19.28,12.33,24.91-.11,2.16-4.77,1.58-11.05,9.18-10.01,2.39.33,2.42,1.46,3.87,2.43.45.3,1.05.38,1.58.69-2.22-.28-3.81.21-4.99,2.19-.86,7.25-2.22,14.31-5.57,20.85-19.75-1.65-39.79,4.32-55.06,16.87-5.2,4.27-9.56,9.39-13.66,14.69-3.59-8.87-8.21-17.59-14.52-24.85,10.53,2.17,22.44,2.54,31.15-4.72s9.83-18.95,8.05-29.93c3.46,4.09,4.91,7.19,7.76,11.32,1.65,2.39,5.6,2.85,7.29.58Z"/>
  <path class="cls-2" d="M410.77,203.05c-.91,26.63-19.44,49.92-45,57.02-9.01,2.5-18.21,2.69-27.45,1.43,1.4-5.82,1.64-11.88,1.4-17.85.83.34,1.73.62,2.63.7,25.18,2.15,49.11-9.12,62.62-30.48,2.2-3.48,3.87-7.21,5.8-10.82Z"/>
  <path class="cls-2" d="M287.22,35.4c7.48,7.74,13.8,16.95,17.15,27.3-19.67.31-39.01,7.79-53.02,21.61-5.48-2.7-11.32-4.68-17.33-5.86,2.52-5.73,4.86-12.92,4.9-19.25,19.82,10.56,48.06.81,48.3-23.8Z"/>
  <path class="cls-2" d="M107.67,34.7c-1.46,2.61-3.45,4.85-5.05,7.38-8.89,14.14-10.38,28.57-6.68,44.77.56,2.44,3.08,9.02,2.47,10.87-.37,1.13-1.53,1.47-2.64,1.38.09-3.15-4.08-5.72-6.54-7.28-4.1-2.61-9.01-4.85-13.72-6.05.19-21.51,13.34-41.3,32.16-51.07Z"/>
  <path class="cls-2" d="M176.27,100.5c-6.23,13.05-9.52,27.51-1.68,40.71,1.23,2.07,2.93,3.77,4.13,5.84-8.16-2.16-17.2-2.61-25.55-1.75.46-16.12,8.34-32.22,20.29-42.88.84-.75,2.07-1.33,2.81-1.92Z"/>
  <path class="cls-2" d="M42.57,154.75c-3.77-4.89-8.46.41-11.72,3.16-1.69,1.42-3.31,3.01-4.91,4.53-9.7-11.97-11.91-30.19-5.08-44.09,1.06,13.55,5.31,22.41,16.62,30.11,1.74,1.18,4.51,1.87,5,4.1.17.77-.03,1.54.08,2.19Z"/>
  <path class="cls-2" d="M116.07,217.4c-4.55,4.07-8.9,9.33-12.54,14.24l-3.91,6.06c-3.83-15.12-2.63-30.84,3.5-45.15-.69,9.86-.22,24.77,12.95,24.85Z"/>
  <path class="cls-2" d="M291.77,72.85c-9.82,5.93-19.72,14.64-18.55,27.3-1.28-1.35-3.15-3.14-4.55-4.38-2.5-2.23-6.43-4.44-8.52-6.53-.24-.24-.72-.3-.58-.81,9.25-8.15,20.09-13.31,32.2-15.58Z"/>
  <path class="cls-11" d="M330.97,248.9c.03-1.61.07-3.29,0-4.9.58,1.17.59,3.65,0,4.9Z"/>
  <path class="cls-10" d="M11.77,220.55c-.59-.38-.34-1.44-.35-2.1.59.38.34,1.44.35,2.1Z"/>
  <path class="cls-10" d="M356.87,201.3c-.66-.02-1.71.25-2.1-.35.66,0,1.72-.24,2.1.35Z"/>
  <path class="cls-10" d="M11.42,214.25c.04-.79.33-1.53.35-1.75-.02.56.22,1.45-.35,1.75Z"/>
  <path class="cls-3" d="M164.72,153.7c-.56-.02-1.45.22-1.75-.35.8.04,1.51.33,1.75.35Z"/>
  <path class="cls-11" d="M99.62,268.85c.04-.72.34-1.33.35-1.4l-.35,1.4Z"/>
  <path class="cls-10" d="M350.57,201.3h-.7c.45-.04.64,0,.7,0Z"/>
  <path class="cls-10" d="M351.97,200.95l-.7.35s.08-.32.7-.35Z"/>
  <path class="cls-3" d="M157.37,153.35l-.7.35s.08-.31.7-.35Z"/>
  <path class="cls-2" d="M20.87,117.65c.06-.29.34-.33.35-.35l-.35.35Z"/>
  <path class="cls-11" d="M99.62,273.4c0-.12,0-.23,0-.35l.34.17-.34.18Z"/>
  <path class="cls-7" d="M250.82,202.35c-.12,5.4-.87,10.16-2.1,15.4,7.63,1.72,15.13,5.79,21.35,10.5,4.29,3.24,12.21,10.7,14.41,15.51,2.18,4.76-3.64,8.65-7.24,4.79-1.92-2.05-3.66-4.71-5.77-7.01-5.59-6.08-11.71-10.73-19.6-13.82-1.35-.53-5.84-2.49-6.82-1.59-2.73,5.32-6.44,10.83-10.67,15.06-9.81,9.81-23.92,15.94-37.8,16.45-5.42.2-10.83-.46-16.12-1.59-3.09,5.98-4.15,12.52-4.88,19.09-.39,3.49.51,8.31-4.38,8.43-2.48.06-3.98-1.13-4.37-3.53v-.35c-.09-1.5-.09-3.4,0-4.9.44-7.56,2.49-14.69,5.24-21.68-5.03-2-9.98-5-14.16-8.43-1.74-1.43-8.22-7.63-8.78-9.42-1.44-4.61,3.68-7.91,7.21-4.76,2.16,1.92,4.27,4.96,6.63,7.02,26.06,22.69,67.63,10.06,77.33-22.78,2.38-8.04,3.02-17.34.38-25.35-.29-4.08-3.3-10.12-5.45-13.62-1.91-3.11-6.48-6.97-3.94-10.65,2.15-3.12,5.55-1.7,7.64.66,8.33,9.41,12.19,24.24,11.91,36.56Z"/>
  <path class="cls-2" d="M240.67,189.4c2.64,8,2,17.3-.38,25.35-9.7,32.85-51.27,45.48-77.33,22.78-2.36-2.06-4.47-5.1-6.63-7.02-3.53-3.15-8.65.15-7.21,4.76.56,1.79,7.04,7.99,8.78,9.42,4.18,3.43,9.13,6.42,14.16,8.43-2.75,6.99-4.8,14.12-5.24,21.68-.65-.01-1.01-.44-1.41-.86-11.57-11.99-28.37-35.29-15.73-51.81,3.91-5.11,7.36-.77,10.74,1.51,18.84,12.74,44.16,16.4,63.07,1.6,9.79-7.66,18.08-23.19,17.19-35.84Z"/>
  <path class="cls-5" d="M219.25,97.1c9.61-.88,23.6,1.41,30,9.34,2.64,3.27,5.74,12.87-.7,12.96-3.99.05-10.19-2.4-14.45-3.06-5.61-.87-10.69-.82-16.3-.04s-12.08,3.05-17.22,3.1c-7.31.08-5.39-8.31-2.41-12.23,4.6-6.05,13.68-9.4,21.07-10.08Z"/>
  <path class="cls-5" d="M136.28,281.51c3.34-.57,13.77,6.24,17.46,7.94,5.62,2.58,11.62,4.32,17.81,4.94,3.36.34,13.01-.09,15.2,1.95,3.07,2.85-2.2,8.37-4.87,9.8-12.81,6.85-38.82-.67-46.5-13.03-1.78-2.86-3.8-10.79.9-11.6Z"/>
  <path class="cls-5" d="M155.55,160.8c7.42-.66,17,1.66,21.76,7.78,2.71,3.48,4.99,11.52-1.87,10.97-5.78-.46-11.72-3.85-18.24-3.84-6.11.02-11.57,3.33-16.84,3.84-1.68.16-3.3.08-3.61-1.91-1.63-10.39,10.22-16.09,18.81-16.85Z"/>
  <path class="cls-5" d="M335.75,104.82c-3.02-3.23-12.54-9.78-4.54-13.71,11.81-5.8,30.19,14.81,23.5,25.6-5.02,8.1-11.54-3.82-14.81-7.47-1.33-1.49-2.78-2.96-4.15-4.42Z"/>
  <path class="cls-7" d="M307.87,139c.09.05,1.23,1.45,1.32,1.65,1.76,3.8-1.37,6.05-3.96,8.14-10.37,8.35-25.37,11.8-38.32,8.41-3.54-.93-6.92-3.54-4.03-7.36,2.45-3.23,6.27-.93,9.56-.44.65.1,1.24.03,1.82.1.3.57,1.19.33,1.75.35,1.03.05,2.12.03,3.15,0l.7-.35c.23-.02.47.02.7,0l.17.34.17-.34c6.44-.77,11.98-2.56,17.26-6.36,2.8-2.02,5.79-6.43,9.69-4.14Z"/>
  <path class="cls-2" d="M270.07,228.25c-6.22-4.71-13.72-8.78-21.35-10.5,1.23-5.24,1.98-10,2.1-15.4,13.13,1.2,18.98,14.09,19.25,25.9Z"/>
  <path class="cls-5" d="M296.61,216.78c9.1-.34,14.83,10.87,12.13,18.81-1.01,2.98-4.55,6.55-7.97,5.54-1.85-.55-3.83-9.33-4.85-11.6s-5.27-7.8-5.49-9.23c-.34-2.22,4.51-3.45,6.18-3.51Z"/>
  <path class="cls-2" d="M271.47,241.55c-12.02-4.45-24.92-3.92-37.1-.35,4.23-4.23,7.94-9.74,10.67-15.06.98-.9,5.48,1.06,6.82,1.59,7.9,3.09,14.02,7.74,19.6,13.82Z"/>
  <path class="cls-5" d="M313.04,78.19c2.47-.05,5.3.86,7.24,2.36,8.67,6.69-3.23,13.66-10.99,8.19-6.05-4.26-3.4-10.41,3.75-10.56Z"/>
  <path class="cls-5" d="M124.03,180.73c11.01-1.88,6.44,15.39-3.15,13.83-7.08-1.15-3.24-12.74,3.15-13.83Z"/>
  <path class="cls-2" d="M196.57,257.65c-8.32,4.3-15.75,9.63-21,17.5.73-6.58,1.79-13.11,4.88-19.09,5.29,1.13,10.7,1.79,16.12,1.59Z"/>
  <path class="cls-3" d="M276.02,149.85c-.56-.02-1.45.22-1.75-.35.61.07,1.66.35,1.75.35Z"/>
  <path class="cls-3" d="M279.87,149.5l-.7.35s.08-.31.7-.35Z"/>
  <path class="cls-4" d="M166.82,280.05c-.05-.31,0-.31,0-.35v.35Z"/>
  <path class="cls-3" d="M280.57,149.5c.12-.01.24.01.35,0l-.17.34-.17-.34Z"/>
  <path class="cls-5" d="M135.61,33.74c6.58-.17,16.85,2.52,19.59,9.26,4.55,11.19-9.7,6.36-15.14,6.04-6.36-.38-11.63,1.27-17.5,1.43-1.97.05-4.67-.3-5.07-2.66-1.56-9.28,10.8-13.87,18.11-14.06Z"/>
  <path class="cls-5" d="M30.57,224.82c.61-.19,1.33-.12,1.95,0,2.59.55,8.96,7.92,11.64,10.06,4.09,3.26,8.52,5.13,12.74,7.91,2.98,1.97,5.21,3.56,2.31,7.15-9.17,11.35-36.37-6.39-31.78-20.93.38-1.2,1.94-3.83,3.15-4.2Z"/>
  <path class="cls-5" d="M58.25,104.1c6.49-.54,16.04,1.42,19.96,7.13,1.99,2.89,3.42,8.78-1.5,9.23s-10.74-1.43-15.77-1.45-11.91,2.17-16.78,1.41c-3.55-.56-2.95-5.24-1.78-7.69,2.59-5.42,10.27-8.17,15.87-8.63Z"/>
  <path class="cls-5" d="M58.23,173.74c7.08-.91,13.87,2.8,11.1,10.75-2.48,7.14-14.92,11.6-21,6.67-.76-.61-2.05-1.98-2.35-2.9-2.39-7.3,5.72-13.68,12.25-14.52Z"/>
  <path class="cls-6" d="M93.32,143.9c.88.51,2.99,2.05,3.69,2.79,2.91,3.1,1.26,7.59-2.85,7.68-1.66.04-6.16-3.35-8.3-4.23-1.45-.6-2.91-.99-4.44-1.34-3.28-.74-5.57-.78-8.94-.71-2.15.04-3.27,1.06-5.53-.39s-2.53-5.14-.42-6.95,9.82-1.58,12.56-1.35c4.14.35,10.62,2.43,14.22,4.51Z"/>
  <path class="cls-5" d="M367.63,159.39c14.64-1.99,34.67,17.92,25.92,31.52-2.61,4.06-4.61,3.66-7.43.21-6.39-7.8-6.69-13.03-16.77-18.58-2.17-1.2-8.68-3.55-9.85-5.2-2.54-3.58,5.16-7.55,8.13-7.95Z"/>
  <path class="cls-5" d="M238.49,21.14c8.2-.92,17.58,1.34,24.55,5.71,3.32,2.07,8.33,6.73,8.78,10.82.52,4.69-.78,6.83-5.69,6.04-4.48-.72-12.01-5.15-17.14-6.66s-10.77-1.92-15.96-3.29c-1.91-.5-4.94-1.17-5.29-3.46-.83-5.43,6.31-8.65,10.75-9.15Z"/>
  <path class="cls-9" d="M212.58,21.13c7.2-1.23,9.5,6.31,4.64,10.59-5.96,5.26-13.31-1.36-8.75-7.7.88-1.22,2.6-2.63,4.11-2.89Z"/>
</svg>